# xmcd
#
# Track frame offsets:
#	150
#	3139
#	22450
#	40450
#	62507
#	82540
#	83812
#	102537
#	106260
#	123282
#	144965
#	155895
#	175170
#	194295
#
# Disc length: 2710 seconds
#
# Revision: 0
# Processed by: cddbd v1.4PL0 Copyright (c) Steve Scherf et al.
# Submitted via: EasyCDDAExtractor 4.6.9.1
#
DISCID=ae0a940e
DTITLE=Marie Carmen Koppel - Yearning
DYEAR=1900
DGENRE=Soul
TTITLE0=Yearning Prelude
TTITLE1=Love Me Or Leave Me
TTITLE2=Your Secret Place
TTITLE3=You Don't See Me Cry
TTITLE4=For The Fun Of It
TTITLE5=Without You
TTITLE6=One Day Soon
TTITLE7=Cry Interlude
TTITLE8=No More
TTITLE9=Love Me Again
TTITLE10=Without You (Tyrone's Interlude)
TTITLE11=If I Can't Have You
TTITLE12=Yearning
TTITLE13=If Only I Knew
EXTD=
EXTT0=
EXTT1=
EXTT2=
EXTT3=
EXTT4=
EXTT5=
EXTT6=
EXTT7=
EXTT8=
EXTT9=
EXTT10=
EXTT11=
EXTT12=
EXTT13=
PLAYORDER=
